<?xml version="1.0" encoding="UTF-8"?><svg id="a" xmlns="http://www.w3.org/2000/svg" viewBox="0 0 800 600.7"><g transform="rotate(-7 400 300)"><path d="M413.77,231.73c4.41-18.89,10.03-38.07,18.5-56.25,14.5-31.14,36.32-55.11,69.71-65.92,36.92-11.95,70.83-5.4,100.45,20.14,20.94,18.05,33.2,41.21,37.59,68.33,4.28,26.44-1.15,51.47-12.49,75.47-9.18,19.42-21.21,37.01-35.22,53.13-19.45,22.38-39.48,44.25-59.24,66.36-38.25,42.78-75.14,86.66-107.8,133.93-2.46,3.56-4.64,7.33-6.61,11.18-1.96,3.81-3.48,7.85-4.98,11.27-18.01-35.43-43.62-65.86-69.1-96.18-28.04-33.36-57.48-65.54-86.32-98.22-16.4-18.58-33.03-36.98-46.52-57.9-13-20.16-22.66-41.68-25.61-65.67-3.98-32.45,4.07-61.86,24.33-87.56,16.71-21.2,38.54-34.56,65.33-38.57,27.82-4.17,53.48,2.12,76.49,18.51,23.07,16.44,38.06,38.94,47.66,65.15,5.2,14.19,9.34,28.77,13.84,42.79Z"/><path d="M429.53,137.83c8.42-18.1,19.97-33.69,34.9-46.64,20.37-17.67,44.04-28.48,70.74-32.03,33.5-4.45,64.83,2.16,93.17,20.77,38.75,25.45,61.98,61.42,70.24,106.9,8.25,45.36-2.59,86.76-27,125.17-15.77,24.81-35.9,45.88-57.53,65.45-20.26,18.33-41.12,36.03-62.18,53.44-21.93,18.14-44.48,35.52-66.65,53.38-11.63,9.37-23.01,19.04-34.52,28.56-.25,.21-.58,.31-1.25,.06,7.92-8.77,15.55-17.83,23.82-26.27,38.21-39.01,76.71-77.72,114.86-116.78,20.46-20.95,40.27-42.5,55.63-67.67,12.57-20.61,21.07-42.74,23.94-66.76,7.54-63.04-24.92-120.29-81.58-144.67-21.04-9.05-43.23-11.69-65.97-8.93-38.52,4.67-68.27,23.68-90.06,55.54-.14,.2-.38,.32-.58,.48Z"/><path d="M378.08,513.24c-17.69-14.07-34.74-27.6-51.75-41.19-21.46-17.14-43.05-34.12-64.28-51.54-27.77-22.8-55.16-46.07-79.4-72.74-23.16-25.49-41.94-53.51-51.54-87.11-21.1-73.88,12.87-153.45,80.56-188.13,55.23-28.3,123.63-14.6,163.89,32.74,8.04,9.46,14.95,19.62,20.22,30.97-.6-.77-1.21-1.53-1.78-2.31-.68-.93-1.29-1.91-1.99-2.81-19.72-25.34-44.97-42.24-76.7-47.99-38.63-7-74.02,1.16-105.14,25.62-26.06,20.49-42.98,46.92-49.47,79.51-7.13,35.79-.91,69.78,15.5,102.07,11.74,23.11,27.59,43.36,45.51,61.82,32.05,33.02,64.86,65.3,97.06,98.18,19.23,19.64,37.9,39.83,56.81,59.78,.74,.78,1.35,1.68,2.5,3.14Z"/></g></svg>